<mxfile host="app.diagrams.net" modified="2023-05-02T09:11:55.259Z" agent="Mozilla/5.0 (Macintosh; Intel Mac OS X 10_15_7) AppleWebKit/605.1.15 (KHTML, like Gecko) Version/15.6.1 Safari/605.1.15" version="21.2.4" etag="hx5Qolu_Lx41lQIKlHWc" type="github">
  <diagram name="Page-1" id="KNomWvZjG_zVxsZ23xd2">
    <mxGraphModel>
      <root>
        <mxCell id="0" />
        <mxCell id="1" parent="0" />
      </root>
    </mxGraphModel>
  </diagram>
</mxfile>
